<svg width="100%" viewBox="0 0 900 2240" role="img" xmlns="http://www.w3.org/2000/svg">
<title>Anatomie d'un GPU : du PC au silicium</title>
<desc>Cinq niveaux de zoom — système, carte graphique, die, SM, silicium — reliés par leurs bus, avec le mapping des concepts CUDA (grid, block, warp, thread) sur chaque étage matériel.</desc>

<style>
  text { font-family: "Anthropic Sans", -apple-system, BlinkMacSystemFont, "Segoe UI", sans-serif; fill: #141413; }
  .title    { font-size: 20px; font-weight: 600; }
  .subtitle { font-size: 13px; fill: #3D3D3A; }
  .panel    { fill: #F1EFE8; stroke: #5F5E5A; stroke-width: 0.5; }
  .plabel   { font-size: 14px; font-weight: 600; fill: #444441; letter-spacing: 0.5px; }
  .box      { fill: #F5F4ED; stroke: #8A8984; stroke-width: 0.5; }
  .compute  { fill: #E1F5EE; stroke: #0F6E56; stroke-width: 0.5; }
  .mem      { fill: #FBEEDC; stroke: #A85B10; stroke-width: 0.5; }
  .ctrl     { fill: #E3EBF8; stroke: #2B5BB8; stroke-width: 0.5; }
  .cuda     { fill: #F3EFFB; stroke: #6D45B8; stroke-width: 1; stroke-dasharray: 5 3; }
  .h1       { font-size: 13px; font-weight: 500; }
  .h1c      { font-size: 13px; font-weight: 500; fill: #085041; }
  .h1m      { font-size: 13px; font-weight: 500; fill: #7A4008; }
  .h1b      { font-size: 13px; font-weight: 500; fill: #1E4185; }
  .h1v      { font-size: 12.5px; font-weight: 600; fill: #4C2E8A; }
  .s        { font-size: 11px; fill: #3D3D3A; }
  .sc       { font-size: 11px; fill: #0F6E56; }
  .sm2      { font-size: 11px; fill: #7A4008; }
  .sb       { font-size: 11px; fill: #2B5BB8; }
  .sv       { font-size: 11px; fill: #4C2E8A; }
  .mut      { font-size: 10.5px; fill: #73726C; }
  .buslabel { font-size: 11.5px; font-weight: 600; fill: #9A3412; }
  .wire     { stroke: #73726C; stroke-width: 1.5; fill: none; }
  .busfat   { stroke: #C2410C; stroke-width: 5; fill: none; }
  .busmem   { stroke: #A85B10; stroke-width: 3; fill: none; }
  .zoom     { stroke: #6D45B8; stroke-width: 1.2; stroke-dasharray: 4 3; fill: none; }
  .silic    { stroke: #444441; stroke-width: 1.5; fill: none; }
</style>

<defs>
  <marker id="arr" viewBox="0 0 10 10" refX="8" refY="5" markerWidth="6" markerHeight="6" orient="auto-start-reverse">
    <path d="M2 1L8 5L2 9" fill="none" stroke="context-stroke" stroke-width="1.5" stroke-linecap="round" stroke-linejoin="round"/>
  </marker>
</defs>

<!-- fond clair : garantit la lisibilité du texte sombre sur les thèmes sombres -->
<rect x="0" y="0" width="900" height="2240" fill="#FBFAF6"/>

<!-- ===================== En-tête ===================== -->
<text class="title" x="30" y="36">Anatomie d'un GPU — du PC au silicium</text>
<text class="subtitle" x="30" y="58">Cinq niveaux de zoom, les bus qui les relient, et où vivent réellement grid, block, warp et thread.</text>
<!-- légende -->
<rect class="compute" x="618" y="24" width="12" height="12" rx="3"/><text class="s" x="635" y="34">calcul</text>
<rect class="mem" x="618" y="42" width="12" height="12" rx="3"/><text class="s" x="635" y="52">mémoire</text>
<rect class="ctrl" x="700" y="24" width="12" height="12" rx="3"/><text class="s" x="717" y="34">contrôle / cache</text>
<rect class="cuda" x="700" y="42" width="12" height="12" rx="3"/><text class="s" x="717" y="52">principe CUDA</text>

<!-- ===================== NIVEAU 1 : SYSTÈME ===================== -->
<rect class="panel" x="30" y="90" width="840" height="340" rx="16"/>
<text class="plabel" x="50" y="116">NIVEAU 1 — LE SYSTÈME : host ↔ device</text>

<!-- carte mère -->
<rect class="box" x="60" y="130" width="430" height="200" rx="10"/>
<text class="mut" x="75" y="150">Carte mère — côté « host »</text>

<rect class="ctrl" x="90" y="160" width="150" height="100" rx="8"/>
<text class="h1b" x="165" y="180" text-anchor="middle">CPU (host)</text>
<text class="sb" x="165" y="198" text-anchor="middle">8–16 cœurs généralistes</text>
<text class="sb" x="165" y="214" text-anchor="middle">exécute main()</text>
<text class="sb" x="165" y="230" text-anchor="middle">lance les kernels</text>
<text class="sb" x="165" y="246" text-anchor="middle">orchestre les copies</text>

<rect class="mem" x="310" y="160" width="150" height="58" rx="8"/>
<text class="h1m" x="385" y="182" text-anchor="middle">RAM DDR5</text>
<text class="sm2" x="385" y="200" text-anchor="middle">mémoire du host</text>
<line class="wire" x1="240" y1="185" x2="310" y2="185" marker-end="url(#arr)" marker-start="url(#arr)"/>
<text class="mut" x="275" y="176" text-anchor="middle">~64 Go/s</text>

<rect class="box" x="310" y="250" width="150" height="50" rx="8"/>
<text class="h1" x="385" y="270" text-anchor="middle">Chipset</text>
<text class="mut" x="385" y="287" text-anchor="middle">NVMe, USB, réseau…</text>
<path class="wire" d="M240 240 L275 240 L275 275 L310 275" marker-end="url(#arr)"/>

<!-- carte graphique (résumé) -->
<rect class="compute" x="560" y="150" width="280" height="180" rx="10"/>
<text class="h1c" x="700" y="176" text-anchor="middle">Carte graphique (device)</text>
<rect class="box" x="590" y="192" width="100" height="60" rx="6"/>
<text class="s" x="640" y="216" text-anchor="middle">Die GPU</text>
<text class="mut" x="640" y="232" text-anchor="middle">des milliers d'ALU</text>
<rect class="mem" x="710" y="192" width="100" height="60" rx="6"/>
<text class="sm2" x="760" y="216" text-anchor="middle">VRAM</text>
<text class="mut" x="760" y="232" text-anchor="middle">GDDR6X</text>
<text class="sc" x="700" y="288" text-anchor="middle">un ordinateur complet dans l'ordinateur,</text>
<text class="sc" x="700" y="305" text-anchor="middle">avec sa propre mémoire → niveau 2</text>

<!-- bus PCIe -->
<line class="busfat" x1="490" y1="240" x2="560" y2="240" marker-end="url(#arr)" marker-start="url(#arr)"/>
<text class="buslabel" x="525" y="222" text-anchor="middle">PCIe 4.0 ×16</text>
<text class="buslabel" x="525" y="262" text-anchor="middle">~32 Go/s</text>

<!-- annotation CUDA -->
<rect class="cuda" x="60" y="345" width="780" height="70" rx="10"/>
<text class="h1v" x="78" y="366">Principes CUDA à ce niveau</text>
<text class="sv" x="78" y="384">• cudaMemcpy (host↔device) traverse le PCIe : ~30× plus lent que la VRAM — c'est LE transfert à minimiser.</text>
<text class="sv" x="78" y="401">• kernel&lt;&lt;&lt;grid, block&gt;&gt;&gt; = commande asynchrone postée via PCIe ; le CPU continue aussitôt (d'où cudaDeviceSynchronize).</text>

<!-- zoom 1→2 -->
<path class="zoom" d="M700 330 L700 470"/>
<text class="sv" x="712" y="455">zoom</text>

<!-- ===================== NIVEAU 2 : LA CARTE ===================== -->
<rect class="panel" x="30" y="470" width="840" height="330" rx="16"/>
<text class="plabel" x="50" y="496">NIVEAU 2 — LA CARTE GRAPHIQUE (PCB)</text>

<rect class="box" x="60" y="510" width="780" height="205" rx="10"/>
<text class="mut" x="75" y="530">PCB</text>

<!-- sorties vidéo -->
<rect class="box" x="90" y="555" width="90" height="90" rx="8"/>
<text class="s" x="135" y="590" text-anchor="middle">Sorties</text>
<text class="s" x="135" y="606" text-anchor="middle">DP / HDMI</text>

<!-- GDDR gauche -->
<rect class="mem" x="255" y="548" width="72" height="32" rx="6"/><text class="sm2" x="291" y="568" text-anchor="middle">GDDR6X</text>
<rect class="mem" x="255" y="590" width="72" height="32" rx="6"/><text class="sm2" x="291" y="610" text-anchor="middle">GDDR6X</text>
<rect class="mem" x="255" y="632" width="72" height="32" rx="6"/><text class="sm2" x="291" y="652" text-anchor="middle">GDDR6X</text>

<!-- die -->
<rect class="compute" x="375" y="545" width="180" height="125" rx="8"/>
<text class="h1c" x="465" y="575" text-anchor="middle">Die GPU (AD102)</text>
<text class="sc" x="465" y="596" text-anchor="middle">~76 milliards</text>
<text class="sc" x="465" y="612" text-anchor="middle">de transistors</text>
<text class="sc" x="465" y="640" text-anchor="middle">→ niveau 3</text>

<!-- GDDR droite -->
<rect class="mem" x="603" y="548" width="72" height="32" rx="6"/><text class="sm2" x="639" y="568" text-anchor="middle">GDDR6X</text>
<rect class="mem" x="603" y="590" width="72" height="32" rx="6"/><text class="sm2" x="639" y="610" text-anchor="middle">GDDR6X</text>
<rect class="mem" x="603" y="632" width="72" height="32" rx="6"/><text class="sm2" x="639" y="652" text-anchor="middle">GDDR6X</text>

<!-- bus mémoire -->
<line class="busmem" x1="327" y1="564" x2="375" y2="580"/>
<line class="busmem" x1="327" y1="606" x2="375" y2="606"/>
<line class="busmem" x1="327" y1="648" x2="375" y2="632"/>
<line class="busmem" x1="555" y1="580" x2="603" y2="564"/>
<line class="busmem" x1="555" y1="606" x2="603" y2="606"/>
<line class="busmem" x1="555" y1="632" x2="603" y2="648"/>
<text class="buslabel" x="465" y="692" text-anchor="middle">Bus mémoire 384-bit — ~1 To/s (≈ 30× le PCIe)</text>

<!-- VRM -->
<rect class="box" x="710" y="555" width="110" height="90" rx="8"/>
<text class="s" x="765" y="583" text-anchor="middle">VRM</text>
<text class="mut" x="765" y="600" text-anchor="middle">étages</text>
<text class="mut" x="765" y="614" text-anchor="middle">d'alimentation</text>
<text class="mut" x="765" y="630" text-anchor="middle">(jusqu'à ~450 W)</text>

<!-- connecteur PCIe -->
<rect x="240" y="700" width="330" height="14" rx="3" fill="#E9C8B4" stroke="#C2410C" stroke-width="0.8"/>
<text class="mut" x="590" y="712">← connecteur PCIe ×16, vers la carte mère</text>

<!-- annotation CUDA -->
<rect class="cuda" x="60" y="728" width="780" height="56" rx="10"/>
<text class="h1v" x="78" y="749">Principe CUDA à ce niveau</text>
<text class="sv" x="78" y="767">• La VRAM = la « global memory » : cudaMalloc alloue ici. Sa bande passante (~1 To/s) est ce que la coalescence évite de gaspiller.</text>

<!-- zoom 2→3 -->
<path class="zoom" d="M465 670 L465 715 L450 715 L450 840"/>
<text class="sv" x="462" y="830">zoom</text>

<!-- ===================== NIVEAU 3 : LE DIE ===================== -->
<rect class="panel" x="30" y="840" width="840" height="430" rx="16"/>
<text class="plabel" x="50" y="866">NIVEAU 3 — LE DIE : SM, CACHE L2, CONTRÔLEURS</text>

<rect class="box" x="60" y="880" width="780" height="38" rx="8"/>
<text class="h1" x="450" y="903" text-anchor="middle">Interface PCIe + moteurs de copie (DMA) — exécutent les cudaMemcpy</text>

<rect class="box" x="230" y="932" width="440" height="40" rx="8"/>
<text class="h1" x="450" y="950" text-anchor="middle">GigaThread Engine</text>
<text class="mut" x="450" y="965" text-anchor="middle">l'ordonnanceur matériel : place les blocks sur les SM libres</text>
<line class="wire" x1="450" y1="918" x2="450" y2="932" marker-end="url(#arr)"/>

<!-- SMs : 2 rangées de 6 -->
<line class="wire" x1="450" y1="972" x2="450" y2="988" marker-end="url(#arr)"/>
<rect class="compute" x="70"  y="992" width="115" height="46" rx="7"/><text class="h1c" x="127" y="1012" text-anchor="middle">SM 0</text><text class="sc" x="127" y="1028" text-anchor="middle">128 ALU FP32</text>
<rect class="compute" x="198" y="992" width="115" height="46" rx="7"/><text class="h1c" x="255" y="1012" text-anchor="middle">SM 1</text><text class="sc" x="255" y="1028" text-anchor="middle">128 ALU FP32</text>
<rect class="compute" x="326" y="992" width="115" height="46" rx="7"/><text class="h1c" x="383" y="1012" text-anchor="middle">SM 2</text><text class="sc" x="383" y="1028" text-anchor="middle">128 ALU FP32</text>
<rect class="compute" x="454" y="992" width="115" height="46" rx="7"/><text class="h1c" x="511" y="1012" text-anchor="middle">SM 3</text><text class="sc" x="511" y="1028" text-anchor="middle">128 ALU FP32</text>
<rect class="compute" x="582" y="992" width="115" height="46" rx="7"/><text class="h1c" x="639" y="1012" text-anchor="middle">SM 4</text><text class="sc" x="639" y="1028" text-anchor="middle">128 ALU FP32</text>
<rect class="compute" x="710" y="992" width="115" height="46" rx="7"/><text class="h1c" x="767" y="1012" text-anchor="middle">SM 5</text><text class="sc" x="767" y="1028" text-anchor="middle">128 ALU FP32</text>

<rect class="compute" x="70"  y="1050" width="115" height="46" rx="7"/><text class="h1c" x="127" y="1070" text-anchor="middle">SM 6</text><text class="sc" x="127" y="1086" text-anchor="middle">128 ALU FP32</text>
<rect class="compute" x="198" y="1050" width="115" height="46" rx="7"/><text class="h1c" x="255" y="1070" text-anchor="middle">SM 7</text><text class="sc" x="255" y="1086" text-anchor="middle">128 ALU FP32</text>
<rect class="compute" x="326" y="1050" width="115" height="46" rx="7"/><text class="h1c" x="383" y="1070" text-anchor="middle">SM 8</text><text class="sc" x="383" y="1086" text-anchor="middle">128 ALU FP32</text>
<rect class="compute" x="454" y="1050" width="115" height="46" rx="7"/><text class="h1c" x="511" y="1070" text-anchor="middle">SM 9</text><text class="sc" x="511" y="1086" text-anchor="middle">128 ALU FP32</text>
<rect class="compute" x="582" y="1050" width="115" height="46" rx="7"/><text class="h1c" x="639" y="1070" text-anchor="middle">SM 10</text><text class="sc" x="639" y="1086" text-anchor="middle">128 ALU FP32</text>
<rect class="compute" x="710" y="1050" width="115" height="46" rx="7"/><text class="h1c" x="767" y="1070" text-anchor="middle">SM N…</text><text class="sc" x="767" y="1086" text-anchor="middle">24 à 144 SM</text>

<!-- L2 -->
<rect class="ctrl" x="70" y="1112" width="755" height="42" rx="8"/>
<text class="h1b" x="447" y="1130" text-anchor="middle">Cache L2 — unique, partagé par TOUS les SM (~200 cycles)</text>
<text class="sb" x="447" y="1146" text-anchor="middle">point de convergence : assure la cohérence des données entre SM</text>

<!-- contrôleurs mémoire -->
<rect class="mem" x="70"  y="1168" width="115" height="34" rx="7"/><text class="sm2" x="127" y="1189" text-anchor="middle">Ctrl mém. 64-bit</text>
<rect class="mem" x="198" y="1168" width="115" height="34" rx="7"/><text class="sm2" x="255" y="1189" text-anchor="middle">Ctrl mém. 64-bit</text>
<rect class="mem" x="326" y="1168" width="115" height="34" rx="7"/><text class="sm2" x="383" y="1189" text-anchor="middle">Ctrl mém. 64-bit</text>
<rect class="mem" x="454" y="1168" width="115" height="34" rx="7"/><text class="sm2" x="511" y="1189" text-anchor="middle">Ctrl mém. 64-bit</text>
<rect class="mem" x="582" y="1168" width="115" height="34" rx="7"/><text class="sm2" x="639" y="1189" text-anchor="middle">Ctrl mém. 64-bit</text>
<rect class="mem" x="710" y="1168" width="115" height="34" rx="7"/><text class="sm2" x="767" y="1189" text-anchor="middle">Ctrl mém. 64-bit</text>
<text class="mut" x="447" y="1216" text-anchor="middle">↓ 6 × 64 = bus 384-bit vers les puces GDDR (niveau 2)</text>

<!-- annotation CUDA -->
<rect class="cuda" x="60" y="1226" width="780" height="36" rx="10"/>
<text class="sv" x="78" y="1249"><tspan class="h1v">Principe CUDA :</tspan> la grid n'existe pas dans le silicium — c'est une file de blocks dans le GigaThread Engine. Un block est placé ENTIER sur un SM.</text>

<!-- zoom 3→4 -->
<path class="zoom" d="M70 1015 L48 1015 L48 1310"/>
<text class="sv" x="58" y="1300">zoom sur un SM</text>

<!-- ===================== NIVEAU 4 : LE SM ===================== -->
<rect class="panel" x="30" y="1310" width="840" height="460" rx="16"/>
<text class="plabel" x="50" y="1336">NIVEAU 4 — LE SM (STREAMING MULTIPROCESSOR)</text>

<!-- 4 partitions -->
<g>
  <rect class="box" x="70" y="1350" width="180" height="212" rx="8"/>
  <text class="mut" x="160" y="1368" text-anchor="middle">Partition 0</text>
  <rect class="ctrl" x="82" y="1376" width="156" height="34" rx="6"/>
  <text class="sb" x="160" y="1390" text-anchor="middle">Warp scheduler</text>
  <text class="mut" x="160" y="1404" text-anchor="middle">élit 1 warp prêt / cycle</text>
  <rect class="mem" x="82" y="1416" width="156" height="28" rx="6"/>
  <text class="sm2" x="160" y="1434" text-anchor="middle">Register file 64 Ko</text>
  <rect class="compute" x="82" y="1450" width="156" height="42" rx="6"/>
  <text class="h1c" x="160" y="1468" text-anchor="middle">32 ALU FP32</text>
  <text class="sc" x="160" y="1484" text-anchor="middle">= 1 lane par thread du warp</text>
  <rect class="compute" x="82" y="1498" width="156" height="26" rx="6"/>
  <text class="sc" x="160" y="1515" text-anchor="middle">16 unités INT32</text>
  <rect class="compute" x="82" y="1530" width="156" height="26" rx="6"/>
  <text class="sc" x="160" y="1547" text-anchor="middle">Tensor Core (matmul)</text>
</g>
<g>
  <rect class="box" x="265" y="1350" width="180" height="212" rx="8"/>
  <text class="mut" x="355" y="1368" text-anchor="middle">Partition 1</text>
  <rect class="ctrl" x="277" y="1376" width="156" height="34" rx="6"/>
  <text class="sb" x="355" y="1390" text-anchor="middle">Warp scheduler</text>
  <text class="mut" x="355" y="1404" text-anchor="middle">élit 1 warp prêt / cycle</text>
  <rect class="mem" x="277" y="1416" width="156" height="28" rx="6"/>
  <text class="sm2" x="355" y="1434" text-anchor="middle">Register file 64 Ko</text>
  <rect class="compute" x="277" y="1450" width="156" height="42" rx="6"/>
  <text class="h1c" x="355" y="1468" text-anchor="middle">32 ALU FP32</text>
  <text class="sc" x="355" y="1484" text-anchor="middle">= 1 lane par thread du warp</text>
  <rect class="compute" x="277" y="1498" width="156" height="26" rx="6"/>
  <text class="sc" x="355" y="1515" text-anchor="middle">16 unités INT32</text>
  <rect class="compute" x="277" y="1530" width="156" height="26" rx="6"/>
  <text class="sc" x="355" y="1547" text-anchor="middle">Tensor Core (matmul)</text>
</g>
<g>
  <rect class="box" x="460" y="1350" width="180" height="212" rx="8"/>
  <text class="mut" x="550" y="1368" text-anchor="middle">Partition 2</text>
  <rect class="ctrl" x="472" y="1376" width="156" height="34" rx="6"/>
  <text class="sb" x="550" y="1390" text-anchor="middle">Warp scheduler</text>
  <text class="mut" x="550" y="1404" text-anchor="middle">élit 1 warp prêt / cycle</text>
  <rect class="mem" x="472" y="1416" width="156" height="28" rx="6"/>
  <text class="sm2" x="550" y="1434" text-anchor="middle">Register file 64 Ko</text>
  <rect class="compute" x="472" y="1450" width="156" height="42" rx="6"/>
  <text class="h1c" x="550" y="1468" text-anchor="middle">32 ALU FP32</text>
  <text class="sc" x="550" y="1484" text-anchor="middle">= 1 lane par thread du warp</text>
  <rect class="compute" x="472" y="1498" width="156" height="26" rx="6"/>
  <text class="sc" x="550" y="1515" text-anchor="middle">16 unités INT32</text>
  <rect class="compute" x="472" y="1530" width="156" height="26" rx="6"/>
  <text class="sc" x="550" y="1547" text-anchor="middle">Tensor Core (matmul)</text>
</g>
<g>
  <rect class="box" x="655" y="1350" width="180" height="212" rx="8"/>
  <text class="mut" x="745" y="1368" text-anchor="middle">Partition 3</text>
  <rect class="ctrl" x="667" y="1376" width="156" height="34" rx="6"/>
  <text class="sb" x="745" y="1390" text-anchor="middle">Warp scheduler</text>
  <text class="mut" x="745" y="1404" text-anchor="middle">élit 1 warp prêt / cycle</text>
  <rect class="mem" x="667" y="1416" width="156" height="28" rx="6"/>
  <text class="sm2" x="745" y="1434" text-anchor="middle">Register file 64 Ko</text>
  <rect class="compute" x="667" y="1450" width="156" height="42" rx="6"/>
  <text class="h1c" x="745" y="1468" text-anchor="middle">32 ALU FP32</text>
  <text class="sc" x="745" y="1484" text-anchor="middle">= 1 lane par thread du warp</text>
  <rect class="compute" x="667" y="1498" width="156" height="26" rx="6"/>
  <text class="sc" x="745" y="1515" text-anchor="middle">16 unités INT32</text>
  <rect class="compute" x="667" y="1530" width="156" height="26" rx="6"/>
  <text class="sc" x="745" y="1547" text-anchor="middle">Tensor Core (matmul)</text>
</g>

<!-- unités communes -->
<rect class="compute" x="70" y="1576" width="180" height="32" rx="7"/>
<text class="sc" x="160" y="1596" text-anchor="middle">SFU ×4 — sin, exp, rsqrt</text>
<rect class="box" x="265" y="1576" width="180" height="32" rx="7"/>
<text class="s" x="355" y="1596" text-anchor="middle">LD/ST — accès mémoire</text>
<rect class="compute" x="460" y="1576" width="180" height="32" rx="7"/>
<text class="sc" x="550" y="1596" text-anchor="middle">RT Core — BVH + intersections</text>
<rect class="box" x="655" y="1576" width="180" height="32" rx="7"/>
<text class="s" x="745" y="1596" text-anchor="middle">Unités de texture ×4</text>

<!-- shared / L1 -->
<rect class="mem" x="70" y="1622" width="765" height="40" rx="8"/>
<text class="h1m" x="452" y="1640" text-anchor="middle">Shared memory / L1 — 128 Ko de SRAM physiquement DANS le SM (~30 cycles)</text>
<text class="sm2" x="452" y="1656" text-anchor="middle">c'est ici que vit __shared__ — et la raison pour laquelle un block ne peut pas être réparti sur plusieurs SM</text>

<!-- annotation CUDA -->
<rect class="cuda" x="60" y="1676" width="780" height="80" rx="10"/>
<text class="h1v" x="78" y="1697">Le mapping logiciel → matériel se termine ici</text>
<text class="sv" x="78" y="1715">• block → un SM entier (registres + shared memory alloués à l'arrivée)   • warp de 32 threads → élu par un scheduler à chaque cycle</text>
<text class="sv" x="78" y="1732">• thread → une lane parmi les 32 ALU, le temps d'un cycle   • registres de TOUS les warps résidents → en permanence dans le register file</text>
<text class="sv" x="78" y="1749">⇒ changement de warp gratuit : c'est le masquage de latence, et la raison d'être de l'occupancy.</text>

<!-- zoom 4→5 -->
<path class="zoom" d="M82 1471 L48 1471 L48 1810"/>
<text class="sv" x="58" y="1800">zoom sur une ALU</text>

<!-- ===================== NIVEAU 5 : SILICIUM ===================== -->
<rect class="panel" x="30" y="1810" width="840" height="360" rx="16"/>
<text class="plabel" x="50" y="1836">NIVEAU 5 — JUSQU'AU SILICIUM</text>

<!-- ALU -->
<rect class="compute" x="60" y="1850" width="230" height="205" rx="10"/>
<text class="h1c" x="175" y="1874" text-anchor="middle">Une ALU FP32 (« CUDA core »)</text>
<rect class="box" x="85" y="1888" width="180" height="30" rx="6"/>
<text class="s" x="175" y="1907" text-anchor="middle">Multiplicateur flottant</text>
<rect class="box" x="85" y="1926" width="180" height="30" rx="6"/>
<text class="s" x="175" y="1945" text-anchor="middle">Additionneur</text>
<rect class="box" x="85" y="1964" width="180" height="30" rx="6"/>
<text class="s" x="175" y="1983" text-anchor="middle">Arrondi / normalisation IEEE</text>
<text class="sc" x="175" y="2018" text-anchor="middle">1 FMA par cycle : a×b+c</text>
<text class="sc" x="175" y="2034" text-anchor="middle">= 2 FLOP (le chiffre des specs)</text>

<line class="wire" x1="290" y1="1950" x2="335" y2="1950" marker-end="url(#arr)"/>
<text class="mut" x="312" y="1938" text-anchor="middle">×10³</text>

<!-- porte logique -->
<rect class="box" x="335" y="1850" width="230" height="205" rx="10"/>
<text class="h1" x="450" y="1874" text-anchor="middle">Une porte logique (NAND CMOS)</text>
<!-- schéma : rail VDD, 2 PMOS en parallèle, 2 NMOS en série, rail GND -->
<line class="silic" x1="390" y1="1892" x2="510" y2="1892"/>
<text class="mut" x="520" y="1896">VDD</text>
<line class="silic" x1="415" y1="1892" x2="415" y2="1912"/>
<line class="silic" x1="485" y1="1892" x2="485" y2="1912"/>
<rect class="silic" x="400" y="1912" width="30" height="22" fill="#F5F4ED"/>
<rect class="silic" x="470" y="1912" width="30" height="22" fill="#F5F4ED"/>
<text class="mut" x="415" y="1927" text-anchor="middle">P</text>
<text class="mut" x="485" y="1927" text-anchor="middle">P</text>
<line class="silic" x1="415" y1="1934" x2="415" y2="1950"/>
<line class="silic" x1="485" y1="1934" x2="485" y2="1950"/>
<line class="silic" x1="415" y1="1950" x2="485" y2="1950"/>
<line class="silic" x1="450" y1="1950" x2="450" y2="1962"/>
<text class="mut" x="466" y="1960">sortie</text>
<rect class="silic" x="435" y="1962" width="30" height="22" fill="#F5F4ED"/>
<text class="mut" x="450" y="1977" text-anchor="middle">N</text>
<line class="silic" x1="450" y1="1984" x2="450" y2="1992"/>
<rect class="silic" x="435" y="1992" width="30" height="22" fill="#F5F4ED"/>
<text class="mut" x="450" y="2007" text-anchor="middle">N</text>
<line class="silic" x1="450" y1="2014" x2="450" y2="2026"/>
<line class="silic" x1="410" y1="2026" x2="490" y2="2026"/>
<text class="mut" x="500" y="2030">GND</text>
<text class="s" x="450" y="2048" text-anchor="middle">4 transistors ; ~40 portes / additionneur 1 bit</text>

<line class="wire" x1="565" y1="1950" x2="610" y2="1950" marker-end="url(#arr)"/>
<text class="mut" x="587" y="1938" text-anchor="middle">×10</text>

<!-- transistor -->
<rect class="box" x="610" y="1850" width="230" height="205" rx="10"/>
<text class="h1" x="725" y="1874" text-anchor="middle">Un transistor (FinFET)</text>
<!-- fin + grille -->
<rect x="650" y="1955" width="150" height="18" rx="2" fill="#E9C8B4" stroke="#A85B10" stroke-width="0.8"/>
<text class="mut" x="725" y="1996" text-anchor="middle">« fin » de silicium (le canal)</text>
<rect x="705" y="1928" width="40" height="52" rx="3" fill="#E1F5EE" stroke="#0F6E56" stroke-width="0.8"/>
<text class="sc" x="725" y="1918" text-anchor="middle">grille (enrobe le canal)</text>
<text class="mut" x="672" y="1948" text-anchor="middle">source</text>
<text class="mut" x="778" y="1948" text-anchor="middle">drain</text>
<text class="s" x="725" y="2020" text-anchor="middle">gravure 4-5 nm — commute en ~ps</text>
<text class="s" x="725" y="2038" text-anchor="middle">~76 milliards par die AD102</text>

<!-- annotation CUDA -->
<rect class="cuda" x="60" y="2075" width="780" height="56" rx="10"/>
<text class="h1v" x="78" y="2094">Du logiciel au physique</text>
<text class="sv" x="78" y="2111">thread (état dans les registres) → warp (instruction émise) → ALU (circuit) → portes logiques → transistors.</text>
<text class="sv" x="78" y="2126">Un thread n'EST pas un transistor : il emprunte ces circuits le temps d'un cycle.</text>

<text class="mut" x="450" y="2200" text-anchor="middle">Valeurs indicatives : architectures Ampere / Ada (RTX 30/40). Les ordres de grandeur varient selon les générations, la structure reste identique.</text>
</svg>
